<svg id="Layer_1" data-name="Layer 1" xmlns="http://www.w3.org/2000/svg" viewBox="0 0 14.28 16.52"><title>navigationico</title><path d="M20.86,19.43c3.78.19,6-5,6.25-5.5a7.3,7.3,0,0,0,.67-4.83A7.13,7.13,0,0,0,24,4.56a6.66,6.66,0,0,0-5.21-.19A6.82,6.82,0,0,0,15,8.72a7.87,7.87,0,0,0,.38,5.4C15.6,14.71,17.39,19.26,20.86,19.43Z" transform="translate(-14.16 -3.42)" fill="none" stroke="#231f20" stroke-miterlimit="10"/><path d="M21.05,7.7a2.51,2.51,0,0,1,2.37,1.23,2.63,2.63,0,0,1,0,2.46,2.55,2.55,0,0,1-2.08,1.43,2.65,2.65,0,0,1-2.09-1.52,2.65,2.65,0,0,1-.09-2.46A2.47,2.47,0,0,1,21.05,7.7Z" transform="translate(-14.16 -3.42)" fill="none" stroke="#231f20" stroke-miterlimit="10"/></svg>