<svg id="Layer_1" data-name="Layer 1" xmlns="http://www.w3.org/2000/svg" viewBox="0 0 17.7 17.41"><title>phoneico</title><path d="M17.84,9.58c.35,2.14,2.54,4.19,4.43,4.16,1.35,0,1.73-1.05,3.15-.88A3.45,3.45,0,0,1,28,14.63a3.59,3.59,0,0,1-.51,4c-1.5,1.44-4.4.36-6.06-.25a15.81,15.81,0,0,1-8.59-8.34C12,8.42,11.13,6.45,12,4.78A3.42,3.42,0,0,1,14.56,3a3.7,3.7,0,0,1,3.79,2.27C18.91,6.87,17.52,7.62,17.84,9.58Z" transform="translate(-11.15 -2.48)" fill="none" stroke="#231f20" stroke-miterlimit="10"/></svg>